<?xml version="1.0" standalone="no"?>
<!DOCTYPE svg PUBLIC "-//W3C//DTD SVG 20010904//EN"
 "http://www.w3.org/TR/2001/REC-SVG-20010904/DTD/svg10.dtd">
<svg version="1.0" xmlns="http://www.w3.org/2000/svg"
 width="339.000000pt" height="481.000000pt" viewBox="0 0 339.000000 481.000000"
 preserveAspectRatio="xMidYMid meet">

<g transform="translate(0.000000,481.000000) scale(0.100000,-0.100000)"
fill="#000000" stroke="none">
<path d="M0 2405 l0 -2405 1695 0 1695 0 0 680 c0 435 -4 680 -10 680 -6 0 -6
9 0 24 11 30 9 106 -3 106 -4 0 -5 6 -1 12 9 14 14 318 7 331 -8 13 -9 157 -1
157 8 0 4 37 -7 63 -4 9 -3 23 3 30 6 8 10 479 11 1369 l2 1358 -1695 0 -1696
0 0 -2405z m1865 2341 c189 -14 376 -47 559 -101 249 -73 532 -265 675 -458
118 -160 198 -371 222 -587 10 -88 13 -2129 3 -2300 -19 -349 -122 -620 -310
-820 -94 -100 -177 -160 -308 -224 -290 -143 -610 -200 -1101 -197 -449 3
-837 101 -1078 275 -216 155 -341 336 -418 609 -47 168 -49 226 -49 1431 0
688 4 1161 10 1209 48 382 312 756 675 956 300 166 690 238 1120 207z"/>
<path d="M1467 4663 c-12 -11 -8 -23 7 -23 19 0 23 -17 31 -136 7 -95 6 -103
-14 -123 -12 -12 -21 -23 -21 -26 0 -3 51 -5 114 -5 91 0 118 3 130 16 9 8 16
21 16 27 0 7 3 22 6 35 9 30 -8 28 -45 -7 -33 -31 -87 -49 -101 -35 -5 5 -9
47 -10 94 -2 148 -1 160 15 160 8 0 15 7 15 15 0 12 -14 15 -68 15 -38 0 -72
-3 -75 -7z"/>
<path d="M1797 4664 c-12 -12 -8 -22 10 -26 14 -3 16 -17 14 -113 -2 -129 -4
-141 -34 -149 -14 -3 -18 -9 -12 -14 12 -12 144 -22 150 -13 2 4 -5 15 -16 25
-19 16 -20 25 -15 129 6 100 8 114 28 129 13 9 21 19 18 21 -9 9 -136 18 -143
11z"/>
<path d="M1169 4617 c-97 -64 -90 -235 11 -288 67 -36 136 -19 186 46 50 66
35 176 -33 235 -44 39 -113 42 -164 7z m108 -29 c45 -49 59 -192 23 -228 -42
-42 -92 -14 -115 62 -19 65 -19 109 -1 153 12 28 20 35 44 35 17 0 37 -9 49
-22z"/>
<path d="M2080 4618 c-130 -88 -94 -308 51 -308 53 0 135 57 114 79 -3 3 -14
0 -23 -7 -63 -45 -106 -39 -135 20 -16 33 -17 45 -7 95 14 70 32 101 64 109
34 8 63 -10 86 -56 28 -55 42 -51 38 12 l-3 53 -40 7 c-105 21 -109 20 -145
-4z"/>
<path d="M2384 4559 c8 -12 13 -26 11 -33 -2 -6 -20 -57 -40 -113 -33 -92 -40
-103 -61 -103 -47 0 -22 -17 89 -62 l112 -46 35 34 c39 38 34 53 -13 36 -43
-16 -89 -15 -110 1 -16 11 -16 15 -1 60 19 56 41 60 64 10 8 -18 18 -33 22
-33 9 0 31 50 42 93 7 31 -12 38 -34 12 -14 -17 -29 -19 -48 -6 -11 7 -11 16
-1 50 7 23 17 45 23 51 18 14 74 -27 97 -71 11 -22 24 -39 29 -39 6 0 10 22
10 49 l0 48 -47 17 c-27 10 -75 28 -108 42 -76 31 -91 31 -71 3z"/>
<path d="M895 4535 c-74 -25 -150 -60 -153 -70 -2 -5 7 -12 19 -15 23 -6 40
-40 89 -176 16 -46 16 -53 3 -67 -26 -26 0 -26 65 1 35 14 62 32 62 40 0 8 -6
12 -14 9 -18 -7 -31 8 -51 56 l-15 37 40 20 c61 31 80 54 80 98 0 65 -52 92
-125 67z m35 -45 c28 -28 26 -76 -5 -96 -31 -20 -40 -14 -59 43 -15 45 -15 49
1 60 24 18 40 16 63 -7z"/>
<path d="M1440 4269 c-525 -54 -853 -287 -952 -674 l-23 -90 0 -835 c0 -1164
7 -1492 33 -1595 27 -105 45 -146 100 -229 52 -79 158 -169 254 -214 183 -86
462 -132 808 -132 724 0 1125 201 1229 616 19 76 20 120 23 1239 3 1320 8
1233 -82 1420 -135 279 -416 438 -865 489 -137 15 -399 18 -525 5z m243 -210
c3 -12 10 -18 16 -14 6 3 11 1 11 -4 0 -6 -7 -11 -15 -11 -8 0 -15 -9 -15 -20
0 -11 -6 -20 -14 -20 -9 0 -12 7 -9 20 4 14 0 20 -11 20 -9 0 -16 5 -16 11 0
5 5 7 11 4 6 -4 13 2 16 14 3 12 9 21 13 21 4 0 10 -9 13 -21z m18 -104 c11
-8 1 -32 -17 -39 -21 -8 -44 4 -44 23 0 16 42 27 61 16z m410 -21 c39 -19 33
-27 -11 -14 -19 6 -49 6 -71 1 -48 -11 -50 -5 -6 14 41 18 52 18 88 -1z m-758
-26 c53 -27 73 -32 137 -33 41 0 91 3 110 7 30 7 32 6 15 -4 -11 -7 -58 -12
-105 -13 -67 0 -96 5 -137 23 -66 28 -136 29 -163 2 -15 -15 -20 -16 -20 -6 0
21 48 56 77 56 13 0 52 -14 86 -32z m740 -74 c4 -1 9 -2 12 -3 3 0 0 -7 -7
-15 -17 -18 -33 -11 -35 14 -1 14 2 18 10 13 7 -4 15 -8 20 -9z m-815 -29 c-2
-11 -10 -20 -18 -20 -9 0 -14 7 -12 18 3 19 -14 23 -21 5 -3 -8 -6 -6 -6 5 -1
13 6 17 29 15 25 -2 30 -6 28 -23z m82 4 c0 -8 5 -7 15 1 9 7 18 10 22 6 4 -3
-2 -13 -13 -20 -10 -8 -20 -10 -22 -5 -6 15 -22 10 -22 -6 0 -8 -4 -15 -9 -15
-5 0 -11 7 -15 15 -3 9 0 15 9 15 8 0 15 5 15 10 0 6 5 10 10 10 6 0 10 -5 10
-11z m77 -16 c-9 -9 -20 -13 -24 -9 -4 4 1 14 11 22 25 18 35 8 13 -13z m543
12 c21 -25 1 -31 -22 -7 -18 18 -19 22 -6 22 8 0 21 -7 28 -15z m31 -7 c11
-21 11 -22 -4 -9 -10 7 -17 17 -17 22 0 15 9 10 21 -13z m-545 -15 c-10 -10
-19 5 -10 18 6 11 8 11 12 0 2 -7 1 -15 -2 -18z m37 6 c4 -16 3 -18 -9 -8 -7
6 -11 15 -8 20 8 13 11 11 17 -12z m257 17 c0 -3 -4 -8 -10 -11 -5 -3 -10 -1
-10 4 0 6 5 11 10 11 6 0 10 -2 10 -4z m59 -51 c0 -5 -6 1 -14 15 -8 14 -14
30 -14 35 0 6 6 -1 14 -15 8 -14 14 -29 14 -35z m111 44 c0 -6 -9 -9 -20 -6
-10 3 -21 0 -23 -6 -2 -6 -9 -7 -16 -3 -11 7 -11 10 0 17 20 12 59 11 59 -2z
m-634 -36 c-11 -11 -17 4 -9 23 7 18 8 18 11 1 2 -10 1 -21 -2 -24z m304 26
c0 -5 -4 -7 -10 -4 -5 3 -10 1 -10 -4 0 -6 -5 -11 -11 -11 -8 0 -8 5 1 15 14
17 30 20 30 4z m115 1 c3 -5 2 -10 -4 -10 -5 0 -13 5 -16 10 -3 6 -2 10 4 10
5 0 13 -4 16 -10z m343 -14 c-1 -14 -6 -23 -9 -20 -10 6 -7 44 3 44 4 0 7 -11
6 -24z m-208 -7 c0 -5 -4 -9 -10 -9 -5 0 -10 7 -10 16 0 8 5 12 10 9 6 -3 10
-10 10 -16z m-293 -31 c-3 -8 -6 -5 -6 6 -1 11 2 17 5 13 3 -3 4 -12 1 -19z
m126 1 c3 -12 10 -18 16 -14 6 3 11 -1 11 -9 0 -10 -6 -13 -17 -9 -13 5 -15 2
-11 -15 5 -17 2 -22 -15 -22 -16 0 -18 3 -9 12 18 18 15 28 -8 28 -11 0 -20 4
-20 9 0 5 10 7 22 3 18 -4 20 -2 16 16 -4 12 -3 22 2 22 4 0 10 -9 13 -21z
m477 11 c0 -5 -2 -10 -4 -10 -3 0 -8 5 -11 10 -3 6 -1 10 4 10 6 0 11 -4 11
-10z m-213 -42 c-3 -8 -6 -5 -6 6 -1 11 2 17 5 13 3 -3 4 -12 1 -19z m-717 -3
c0 -17 -2 -18 -25 -9 -13 5 -14 8 -3 15 19 13 28 11 28 -6z m905 5 c-3 -5 -10
-10 -16 -10 -5 0 -9 5 -9 10 0 6 7 10 16 10 8 0 12 -4 9 -10z m15 -40 c0 -5
-5 -10 -11 -10 -5 0 -7 5 -4 10 3 6 8 10 11 10 2 0 4 -4 4 -10z m-945 -10 c3
-5 1 -10 -4 -10 -6 0 -11 5 -11 10 0 6 2 10 4 10 3 0 8 -4 11 -10z m655 -20
c0 -5 -5 -10 -11 -10 -5 0 -7 5 -4 10 3 6 8 10 11 10 2 0 4 -4 4 -10z m35 0
c3 -5 1 -10 -4 -10 -6 0 -11 5 -11 10 0 6 2 10 4 10 3 0 8 -4 11 -10z m75 0
c0 -5 -5 -10 -11 -10 -5 0 -7 5 -4 10 3 6 8 10 11 10 2 0 4 -4 4 -10z m-620
-10 c0 -5 -4 -10 -10 -10 -5 0 -10 5 -10 10 0 6 5 10 10 10 6 0 10 -4 10 -10z
m40 6 c0 -3 -4 -8 -10 -11 -5 -3 -10 -1 -10 4 0 6 5 11 10 11 6 0 10 -2 10 -4z
m40 -6 c0 -5 -4 -10 -10 -10 -5 0 -10 5 -10 10 0 6 5 10 10 10 6 0 10 -4 10
-10z m620 0 c0 -5 -2 -10 -4 -10 -3 0 -8 5 -11 10 -3 6 -1 10 4 10 6 0 11 -4
11 -10z m-430 -50 c0 -5 -21 -10 -46 -10 -27 0 -43 4 -39 10 3 6 24 10 46 10
21 0 39 -4 39 -10z m-266 -9 c3 -5 -3 -11 -14 -14 -20 -5 -26 3 -13 16 9 10
21 9 27 -2z m146 -1 c0 -5 -14 -10 -31 -10 -17 0 -28 4 -24 10 3 6 17 10 31
10 13 0 24 -4 24 -10z m293 3 c-13 -2 -35 -2 -50 0 -16 2 -5 4 22 4 28 0 40
-2 28 -4z m90 0 c-7 -2 -21 -2 -30 0 -10 3 -4 5 12 5 17 0 24 -2 18 -5z m142
-3 c-3 -5 -12 -7 -20 -3 -21 7 -19 13 6 13 11 0 18 -4 14 -10z m80 0 c4 -6 -5
-10 -19 -10 -14 0 -26 5 -26 10 0 6 9 10 19 10 11 0 23 -4 26 -10z m-825 -10
c0 -5 -11 -10 -25 -10 -14 0 -25 5 -25 10 0 6 11 10 25 10 14 0 25 -4 25 -10z
m247 -38 c-9 -2 -15 -8 -12 -13 4 -5 -3 -9 -14 -9 -14 0 -19 5 -15 14 6 16 33
26 49 17 6 -3 2 -7 -8 -9z m127 -6 c-3 -9 -12 -16 -20 -16 -18 0 -18 5 2 25
19 19 27 15 18 -9z m196 4 c0 -11 -4 -20 -10 -20 -5 0 -10 6 -10 14 0 8 -6 17
-12 19 -7 3 -3 6 10 6 16 1 22 -5 22 -19z m40 10 c0 -5 -4 -10 -10 -10 -5 0
-10 5 -10 10 0 6 5 10 10 10 6 0 10 -4 10 -10z m90 -22 c0 -5 -4 -8 -10 -8 -5
0 -10 10 -10 23 0 18 2 19 10 7 5 -8 10 -18 10 -22z m-603 0 c-3 -8 -6 -5 -6
6 -1 11 2 17 5 13 3 -3 4 -12 1 -19z m63 1 c0 -5 -7 -9 -15 -9 -15 0 -20 12
-9 23 8 8 24 -1 24 -14z m160 -1 c0 -6 -6 -5 -15 2 -8 7 -15 14 -15 16 0 2 7
1 15 -2 8 -4 15 -11 15 -16z m114 7 c4 -10 -1 -15 -14 -15 -13 0 -18 5 -14 15
4 8 10 15 14 15 4 0 10 -7 14 -15z m50 0 c-4 -8 -11 -15 -16 -15 -6 0 -5 6 2
15 7 8 14 15 16 15 2 0 1 -7 -2 -15z m166 -6 c0 -5 -4 -9 -10 -9 -5 0 -10 7
-10 16 0 8 5 12 10 9 6 -3 10 -10 10 -16z m137 6 c0 -8 -2 -15 -4 -15 -3 0
-11 7 -19 15 -14 13 -13 15 4 15 10 0 19 -7 19 -15z m77 -3 c13 -3 17 -1 12 6
-4 8 0 12 10 12 14 0 15 -3 6 -12 -18 -18 -15 -28 10 -28 12 0 19 -2 16 -5
-13 -13 -89 9 -100 28 -9 17 -8 19 8 12 11 -4 28 -10 38 -13z m-897 -7 c0 -8
-4 -15 -9 -15 -4 0 -8 7 -8 15 0 8 4 15 8 15 5 0 9 -7 9 -15z m58 5 c-3 -5
-10 -10 -16 -10 -5 0 -9 5 -9 10 0 6 7 10 16 10 8 0 12 -4 9 -10z m40 0 c3 -5
1 -10 -4 -10 -6 0 -11 5 -11 10 0 6 2 10 4 10 3 0 8 -4 11 -10z m675 6 c0 -3
-4 -8 -10 -11 -5 -3 -10 -1 -10 4 0 6 5 11 10 11 6 0 10 -2 10 -4z m-820 -21
c7 -8 8 -15 2 -15 -5 0 -15 7 -22 15 -7 8 -8 15 -2 15 5 0 15 -7 22 -15z m-35
-23 c-3 -3 -11 0 -18 7 -9 10 -8 11 6 5 10 -3 15 -9 12 -12z m1425 -72 c3 0
-3 -5 -13 -11 -18 -11 -41 -3 -32 11 4 7 14 7 45 0z m-882 -77 c-11 -14 -1
-93 12 -93 5 0 14 8 19 18 7 12 10 -25 11 -130 0 -125 -2 -148 -15 -148 -8 0
-15 -9 -15 -20 0 -11 -4 -20 -10 -20 -16 0 -12 -37 5 -44 8 -3 14 -11 13 -18
-2 -7 3 -12 10 -10 15 3 18 -303 2 -313 -5 -3 -10 1 -10 9 0 14 -12 20 -32 17
-5 0 -8 56 -9 127 0 70 -2 258 -5 417 l-4 290 19 -35 c13 -24 16 -39 9 -47z
m66 67 c-7 -7 -19 -7 -35 -1 -23 9 -22 10 11 10 23 1 31 -2 24 -9z m366 5 c0
-3 -12 -10 -26 -15 -14 -6 -22 -14 -19 -20 4 -6 -42 -10 -132 -10 -117 1 -135
3 -120 14 9 7 17 18 17 25 0 8 42 11 140 11 77 0 140 -2 140 -5z m327 -20 l11
-25 -135 0 c-87 0 -132 4 -128 10 3 6 -5 14 -19 20 -14 5 -26 12 -26 15 0 3
64 5 143 5 142 0 142 0 154 -25z m163 -210 c0 -204 -2 -234 -15 -229 -8 4 -15
15 -15 26 0 13 -5 18 -13 15 -11 -4 -14 23 -16 128 -2 121 -1 133 15 131 23
-1 40 69 23 91 -9 10 -9 17 -1 25 7 7 12 20 12 30 0 10 2 18 5 18 3 0 5 -106
5 -235z m-830 205 c0 -5 -4 -10 -10 -10 -5 0 -10 5 -10 10 0 6 5 10 10 10 6 0
10 -4 10 -10z m730 0 c0 -5 -2 -10 -4 -10 -3 0 -8 5 -11 10 -3 6 -1 10 4 10 6
0 11 -4 11 -10z m-770 -15 c7 -9 10 -18 7 -22 -8 -7 -37 15 -37 28 0 14 16 11
30 -6z m815 -5 c-10 -11 -20 -18 -23 -15 -7 6 18 35 31 35 5 0 2 -9 -8 -20z
m-1213 -11 c11 -18 23 -21 63 -19 28 1 68 2 90 3 27 1 39 6 37 15 -1 8 2 11 8
7 6 -4 9 -13 6 -20 -3 -9 6 -16 25 -20 16 -4 29 -13 29 -21 0 -19 -16 -18 -24
2 -8 20 -61 15 -61 -5 0 -8 -13 -18 -30 -22 -26 -7 -28 -6 -13 5 10 7 15 16
11 19 -9 10 -71 8 -77 -2 -3 -4 -34 -14 -68 -21 -35 -7 -67 -17 -72 -21 -15
-13 -28 -11 -24 4 3 6 17 14 33 17 43 8 44 30 1 30 -19 0 -38 5 -41 10 -4 6 5
10 19 10 19 0 26 5 26 19 0 34 41 41 62 10z m721 -47 c13 -12 28 -22 33 -22 5
0 15 -14 21 -31 10 -26 15 -30 27 -20 8 6 17 23 20 36 4 16 11 22 20 19 9 -3
21 5 31 19 15 24 21 25 119 26 122 2 135 -2 128 -34 -3 -20 0 -24 24 -27 l29
-3 3 -124 c2 -115 1 -125 -18 -138 -11 -8 -20 -20 -20 -27 0 -8 -13 -19 -30
-26 -16 -7 -30 -15 -30 -19 0 -13 24 -31 42 -31 11 0 18 -7 18 -20 0 -11 9
-25 20 -32 18 -12 20 -24 20 -155 0 -137 -1 -143 -20 -143 -11 0 -23 -7 -26
-15 -5 -12 -30 -15 -134 -15 -104 0 -129 3 -134 15 -3 8 -12 15 -21 15 -9 0
-21 14 -26 30 -6 17 -18 30 -25 30 -8 0 -20 -13 -25 -30 -7 -19 -18 -30 -30
-30 -11 0 -22 -7 -25 -15 -5 -12 -29 -15 -130 -15 -104 0 -124 2 -124 15 0 8
-8 15 -19 15 -17 0 -19 9 -19 139 0 134 1 140 24 160 13 11 24 27 24 35 0 8
11 17 25 20 34 9 31 35 -5 49 -18 7 -30 19 -30 29 0 9 -9 22 -20 28 -18 10
-19 20 -17 132 2 120 3 123 27 135 14 7 26 18 26 25 1 7 2 15 3 18 0 3 50 5
111 5 98 -1 112 -3 133 -23z m137 12 c0 -2 -7 -4 -15 -4 -8 0 -15 4 -15 10 0
5 7 7 15 4 8 -4 15 -8 15 -10z m-480 2 c0 -3 -4 -8 -10 -11 -5 -3 -10 -1 -10
4 0 6 5 11 10 11 6 0 10 -2 10 -4z m430 -21 c0 -8 -4 -17 -10 -20 -6 -4 -10 5
-10 20 0 15 4 24 10 20 6 -3 10 -12 10 -20z m425 15 c-3 -5 -12 -7 -20 -3 -21
7 -19 13 6 13 11 0 18 -4 14 -10z m-1528 -42 c-3 -7 -5 -2 -5 12 0 14 2 19 5
13 2 -7 2 -19 0 -25z m-197 13 c0 -6 -4 -13 -10 -16 -5 -3 -10 1 -10 9 0 9 5
16 10 16 6 0 10 -4 10 -9z m494 -75 c13 -17 33 -20 130 -18 59 2 67 4 62 18
-5 14 -4 15 8 5 17 -14 9 -51 -10 -51 -8 0 -14 -7 -14 -15 0 -8 -7 -15 -15
-15 -8 0 -15 4 -15 9 0 19 -40 21 -92 6 -29 -9 -73 -23 -98 -30 -25 -8 -49
-10 -53 -6 -5 5 8 12 28 15 40 8 43 29 4 34 -37 5 -50 24 -14 20 17 -2 33 -7
36 -12 9 -12 39 0 39 17 0 7 -12 18 -27 24 -27 11 -27 11 -4 12 13 1 29 -6 35
-13z m250 -42 c20 -8 21 -20 2 -27 -8 -3 -16 2 -19 14 -6 21 -5 22 17 13z
m-258 -93 c-3 -5 -15 -7 -26 -4 -28 7 -25 13 6 13 14 0 23 -4 20 -9z m222 -9
c2 -7 -1 -12 -8 -12 -6 0 -9 4 -6 9 4 5 1 12 -4 14 -6 3 -5 4 2 3 6 -1 14 -8
16 -14z m6 -24 c22 -8 42 -20 44 -26 6 -18 -25 -14 -32 3 -7 19 -31 19 -48 1
-9 -9 -21 -11 -44 -4 -22 6 -50 3 -90 -8 -33 -9 -70 -18 -84 -21 -14 -3 -30
-9 -35 -14 -6 -4 -17 -4 -25 1 -10 6 -3 10 23 15 45 9 51 35 8 35 -17 0 -32 4
-35 9 -9 14 49 18 63 4 16 -18 28 -16 33 5 4 15 17 17 94 15 49 0 107 -8 128
-15z m956 -68 c0 -5 -2 -10 -4 -10 -3 0 -8 5 -11 10 -3 6 -1 10 4 10 6 0 11
-4 11 -10z m-690 -46 c0 -2 -17 -4 -37 -3 -29 0 -33 2 -18 8 18 7 55 4 55 -5z
m779 -191 c-1 -104 -4 -178 -6 -165 -5 27 -23 29 -30 2 -3 -11 -10 -20 -15
-20 -5 0 -8 66 -7 160 1 128 4 160 15 160 8 0 14 6 14 13 0 11 19 37 27 37 2
0 2 -84 2 -187z m-1779 117 c-20 -13 -40 -13 -40 0 0 6 12 10 28 10 21 0 24
-2 12 -10z m220 -5 c9 -10 9 -15 1 -15 -24 0 -9 -18 19 -23 27 -6 44 -37 20
-37 -5 0 -10 7 -10 15 0 10 -10 15 -29 15 -29 0 -55 -19 -29 -21 16 -1 -31
-17 -52 -17 -10 0 -11 1 -2 5 20 8 13 23 -11 23 -20 0 -110 -21 -194 -46 -13
-3 -23 -2 -23 4 0 5 16 13 35 16 19 4 35 11 35 15 0 11 -25 21 -51 21 -10 0
-19 4 -19 9 0 4 13 8 30 7 16 -1 30 -4 30 -8 0 -17 32 -7 37 12 3 11 10 17 16
13 12 -7 178 -5 186 3 3 3 -1 9 -9 14 -8 6 -10 10 -4 10 6 0 17 -7 24 -15z
m257 -62 c-3 -10 -5 -4 -5 12 0 17 2 24 5 18 2 -7 2 -21 0 -30z m200 5 c-3 -8
-6 -5 -6 6 -1 11 2 17 5 13 3 -3 4 -12 1 -19z m-569 -62 c-7 -8 -15 -12 -17
-11 -5 6 10 25 20 25 5 0 4 -6 -3 -14z m-93 -16 c4 -6 -5 -10 -20 -10 -15 0
-24 4 -20 10 3 6 12 10 20 10 8 0 17 -4 20 -10z m142 4 c-3 -3 -12 -4 -19 -1
-8 3 -5 6 6 6 11 1 17 -2 13 -5z m57 0 c22 -8 20 -31 -3 -51 -11 -9 -18 -20
-15 -25 3 -4 1 -8 -5 -8 -5 0 -12 4 -15 9 -10 16 -57 19 -94 6 -52 -18 -143
-45 -153 -45 -22 0 -6 19 19 22 16 2 27 9 27 18 0 9 -11 16 -27 18 -16 2 -28
7 -28 10 0 9 39 7 64 -3 12 -5 21 -3 27 6 6 11 30 15 104 14 97 -1 120 5 88
24 -20 12 -13 14 11 5z m66 -69 c0 -8 -7 -15 -15 -15 -8 0 -15 7 -15 15 0 8 7
15 15 15 8 0 15 -7 15 -15z m297 -17 c-3 -7 -5 -2 -5 12 0 14 2 19 5 13 2 -7
2 -19 0 -25z m-554 -67 c5 -22 44 -31 78 -19 13 5 40 6 61 3 45 -8 64 1 47 21
-10 12 -9 13 4 8 23 -9 18 -51 -8 -58 -17 -5 -18 -8 -5 -16 13 -8 13 -10 -2
-10 -9 0 -18 5 -20 11 -2 5 -19 10 -38 11 -39 0 -176 -36 -195 -52 -6 -5 -15
-7 -18 -3 -13 13 -6 21 24 27 38 7 34 28 -7 38 -21 5 -16 6 21 5 39 -2 50 1
50 13 0 8 -10 16 -23 18 -26 4 -20 22 7 22 10 0 21 -8 24 -19z m1287 -18 c0
-21 -3 -24 -9 -14 -5 8 -7 20 -4 28 8 21 13 15 13 -14z m-1030 -39 c0 -20 -13
-17 -27 5 -10 16 -9 18 8 14 10 -3 19 -12 19 -19z m1080 22 c0 -3 -4 -8 -10
-11 -5 -3 -10 -1 -10 4 0 6 5 11 10 11 6 0 10 -2 10 -4z m400 -6 c0 -5 -5 -10
-11 -10 -5 0 -7 5 -4 10 3 6 8 10 11 10 2 0 4 -4 4 -10z m20 -42 c0 -18 -2
-20 -9 -8 -6 8 -7 18 -5 22 9 14 14 9 14 -14z m-1620 8 c0 -11 -19 -15 -25 -6
-3 5 1 10 9 10 9 0 16 -2 16 -4z m690 -6 c0 -5 -5 -10 -11 -10 -5 0 -7 5 -4
10 3 6 8 10 11 10 2 0 4 -4 4 -10z m37 -17 c-9 -9 -20 -14 -24 -10 -3 4 2 14
13 21 25 19 33 10 11 -11z m337 18 c21 -1 27 -5 22 -16 -3 -10 1 -15 13 -15
10 0 24 -7 31 -15 11 -13 -5 -15 -139 -15 -140 0 -153 2 -172 21 -23 23 -23
25 8 36 19 7 66 8 237 4z m410 -7 c18 -11 18 -12 0 -33 -17 -20 -27 -21 -172
-21 -136 0 -153 2 -142 15 7 8 21 15 32 15 13 0 18 5 15 14 -4 10 11 14 71 15
42 1 77 3 79 4 7 8 101 0 117 -9z m114 -6 c19 -19 14 -30 -8 -18 -11 6 -20 15
-20 20 0 14 14 12 28 -2z m-813 -36 c-8 -8 -25 10 -19 20 4 6 9 5 15 -3 4 -7
6 -15 4 -17z m761 1 c-10 -10 -19 5 -10 18 6 11 8 11 12 0 2 -7 1 -15 -2 -18z
m-796 -3 c0 -5 -10 -10 -22 -9 -22 0 -22 1 -3 9 11 5 21 9 23 9 1 1 2 -3 2 -9z
m860 -14 c0 -2 -11 -3 -25 -3 -24 0 -31 7 -19 20 6 6 44 -9 44 -17z m-192 -63
c-10 -2 -18 -9 -18 -15 0 -6 -3 -9 -6 -5 -10 10 6 27 24 26 15 -1 15 -2 0 -6z
m-103 -23 c3 -6 -5 -10 -19 -10 -14 0 -28 5 -31 10 -3 6 5 10 19 10 14 0 28
-4 31 -10z m212 -22 c-1 -13 -10 -26 -20 -30 -10 -4 -15 -12 -12 -18 3 -5 1
-10 -4 -10 -6 0 -11 5 -11 10 0 15 -51 12 -117 -6 -32 -9 -70 -19 -86 -21 -15
-3 -30 -9 -33 -14 -8 -14 -24 -11 -24 5 0 8 16 17 37 21 35 6 37 8 18 21 -10
8 -28 14 -39 15 -18 1 -17 2 4 8 14 4 33 3 43 -3 14 -8 20 -7 27 4 7 12 29 15
105 14 72 0 98 3 102 13 8 20 13 16 10 -9z m-710 -60 c-3 -7 -5 -2 -5 12 0 14
2 19 5 13 2 -7 2 -19 0 -25z m763 17 c0 -8 -7 -15 -15 -15 -8 0 -15 7 -15 15
0 8 7 15 15 15 8 0 15 -7 15 -15z m-260 -79 c0 -2 -11 -6 -25 -8 -14 -3 -25
-1 -25 3 0 5 11 9 25 9 14 0 25 -2 25 -4z m216 -23 c-3 -8 -6 -19 -6 -24 0 -5
-7 -9 -16 -9 -10 0 -14 -6 -10 -15 7 -20 -21 -20 -41 1 -18 17 -20 17 -142
-20 -53 -16 -89 -22 -94 -17 -6 6 4 12 27 16 44 9 43 29 -2 33 -18 2 -32 8
-32 13 0 6 9 7 21 4 14 -5 25 -2 30 6 6 10 9 11 9 2 0 -7 9 -13 20 -13 11 0
20 7 20 15 0 12 4 13 18 6 27 -14 184 -1 178 15 -3 8 0 11 10 7 8 -3 13 -12
10 -20z m-1301 1 c21 -8 57 -19 79 -24 l41 -8 -36 -1 c-39 -1 -92 14 -124 36
-26 18 -6 17 40 -3z m-151 -41 c-30 -61 -44 -137 -39 -205 3 -41 2 -46 -4 -23
-12 43 -13 134 -1 177 9 30 53 98 64 98 2 0 -8 -21 -20 -47z m1490 11 c18 -7
22 -24 5 -24 -6 0 -17 7 -25 15 -16 16 -7 19 20 9z m-657 -41 c-3 -10 -5 -4
-5 12 0 17 2 24 5 18 2 -7 2 -21 0 -30z m-537 -35 c0 -25 -3 -29 -10 -18 -13
20 -13 50 0 50 6 0 10 -15 10 -32z m-117 -135 c5 -40 2 -35 -18 32 -13 44 -24
91 -24 105 0 36 35 -80 42 -137z m-42 -17 c11 -49 18 -91 15 -93 -5 -5 -8 3
-41 127 -14 52 -25 104 -24 115 1 31 28 -49 50 -149z m-68 59 c14 -49 28 -110
31 -135 l6 -45 -16 45 c-15 44 -54 205 -54 224 0 20 8 -2 33 -89z m190 30 l5
-40 -13 30 c-16 33 -21 91 -6 65 5 -8 11 -33 14 -55z m982 38 c11 -14 27 -17
101 -15 92 3 108 7 84 22 -8 6 -10 10 -5 10 20 0 36 -17 30 -32 -4 -11 2 -17
25 -22 18 -3 30 -11 28 -18 -6 -18 -28 -22 -28 -4 0 11 -9 16 -31 16 -24 0
-30 -4 -25 -15 4 -10 -1 -15 -14 -15 -11 0 -20 4 -20 9 0 15 -41 20 -69 9 -14
-6 -51 -16 -81 -23 -30 -7 -63 -16 -72 -20 -11 -4 -18 -3 -18 3 0 6 14 13 31
17 35 8 34 28 -2 33 -13 2 -28 8 -34 14 -7 7 -1 9 18 4 18 -4 27 -2 27 6 0 6
6 4 13 -7 15 -19 37 -13 37 11 0 12 -19 19 -42 15 -5 0 -8 4 -8 9 0 17 42 11
55 -7z m-1027 -68 c0 -16 -2 -15 -8 5 -4 14 -8 34 -8 45 0 16 2 15 8 -5 4 -14
8 -34 8 -45z m116 28 c-11 -48 -103 -344 -109 -351 -2 -2 -17 0 -34 5 l-31 8
50 105 c28 58 67 140 87 183 38 82 47 94 37 50z m-289 -128 c19 -75 35 -140
35 -143 0 -18 -32 57 -49 116 -18 63 -35 180 -25 169 3 -2 20 -66 39 -142z
m1372 -67 c-3 -7 -5 -2 -5 12 0 14 2 19 5 13 2 -7 2 -19 0 -25z m-654 5 c15
-15 34 -17 105 -15 52 2 90 8 95 15 5 7 6 4 2 -9 -4 -18 0 -22 25 -27 30 -7
43 -37 15 -37 -9 0 -12 6 -9 15 5 11 -1 15 -25 15 -19 0 -31 -5 -31 -13 0 -16
-58 -39 -66 -26 -3 5 4 9 16 9 13 0 19 4 14 11 -8 14 -57 8 -158 -20 -92 -25
-86 -24 -86 -11 0 6 14 10 30 10 20 0 30 5 30 15 0 9 -12 18 -30 22 -16 3 -30
10 -30 14 0 5 12 6 28 2 44 -11 66 -9 70 7 1 10 -8 20 -25 27 -21 8 -23 11 -9
12 11 1 28 -7 39 -16z m113 -160 c55 2 78 7 77 15 -3 14 13 16 22 3 3 -5 0
-13 -6 -17 -7 -4 1 -11 22 -18 33 -11 42 -27 20 -34 -6 -2 -11 3 -11 12 0 17
-27 21 -49 7 -8 -5 -10 -14 -6 -22 5 -8 5 -11 1 -7 -5 4 -19 3 -32 -2 -14 -6
-26 -6 -29 0 -4 6 1 10 9 10 9 0 16 5 16 11 0 12 -46 8 -115 -10 -22 -5 -53
-13 -70 -17 -16 -4 -33 -12 -37 -18 -5 -8 -11 -7 -19 1 -13 13 -6 18 35 25 34
5 29 26 -6 30 -18 2 -32 7 -30 13 3 14 45 12 60 -3 17 -16 32 -7 32 20 0 16
-5 19 -25 16 -14 -3 -25 -2 -25 3 0 16 26 16 56 -2 24 -14 47 -18 110 -16z
m-102 -132 c3 -5 47 -8 96 -8 83 1 91 3 86 20 -3 14 -2 16 9 7 8 -6 11 -18 8
-27 -9 -23 -45 -59 -68 -66 -19 -7 -19 -6 -2 7 9 7 17 16 17 20 0 9 -66 7 -92
-3 -13 -5 -43 -14 -68 -21 -25 -7 -55 -17 -67 -23 -13 -6 -26 -8 -29 -4 -11
11 7 27 31 27 52 0 38 38 -15 41 -23 1 -22 2 5 8 17 4 32 3 33 -1 8 -18 42 -8
42 12 0 15 -7 20 -27 20 -21 0 -24 3 -14 9 15 10 44 0 55 -18z m133 23 c-3 -3
-12 -4 -19 -1 -8 3 -5 6 6 6 11 1 17 -2 13 -5z m114 -69 c1 -17 -18 -17 -25 0
-4 11 -1 15 10 13 8 -2 15 -7 15 -13z m652 -106 c82 -43 77 -126 -15 -240 -17
-21 -32 -48 -33 -61 -4 -35 -4 -35 -21 -42 -19 -7 -44 10 -44 30 0 7 10 22 22
34 28 26 20 33 -21 19 -19 -7 -36 -22 -41 -35 -11 -28 -41 -32 -61 -8 -19 23
-2 43 56 65 50 19 85 49 85 75 0 24 -74 16 -209 -21 -170 -47 -357 -90 -466
-109 -96 -17 -115 -29 -115 -76 0 -84 -197 -133 -308 -78 -39 19 -49 30 -62
67 l-15 44 -145 32 c-80 18 -206 46 -280 63 -210 47 -348 68 -363 53 -9 -10
-1 -22 38 -57 28 -24 58 -44 67 -44 22 0 33 -37 18 -55 -19 -23 -36 -18 -60
15 -12 16 -28 30 -36 30 -17 0 -18 -12 -3 -27 12 -12 -4 -53 -21 -53 -26 0
-40 15 -40 41 0 17 -19 63 -45 107 -110 187 -19 257 271 207 49 -9 186 -41
304 -71 135 -35 249 -58 305 -62 l90 -7 -3 -64 c-1 -35 3 -70 8 -77 19 -22
105 -37 144 -24 54 17 60 30 42 90 -19 63 -13 80 28 81 72 2 150 10 189 20 23
6 69 16 102 24 33 8 74 19 90 25 47 18 253 71 330 85 89 17 190 18 218 4z"/>
<path d="M1310 3321 c0 -22 21 -33 40 -21 18 11 8 33 -18 37 -16 2 -22 -2 -22
-16z"/>
<path d="M2193 3172 c-13 -2 -23 -8 -23 -14 0 -5 -10 -23 -21 -40 -15 -20 -20
-38 -16 -57 5 -26 1 -23 -55 30 -53 51 -67 59 -100 59 -35 0 -37 -2 -34 -28 4
-40 21 -68 31 -52 5 8 21 -1 51 -31 24 -24 44 -47 44 -53 0 -5 -28 -6 -69 -2
-64 5 -71 4 -85 -15 -22 -32 -6 -65 30 -62 16 1 56 3 89 3 52 1 62 -2 75 -22
8 -13 25 -32 37 -44 l23 -21 -40 -12 c-48 -14 -54 -23 -51 -79 1 -29 -3 -50
-14 -62 -26 -29 -9 -52 34 -44 62 10 63 11 60 57 l-4 43 48 0 c31 0 47 -4 47
-13 0 -7 14 -22 30 -35 34 -25 38 -43 11 -57 -25 -14 -34 -50 -15 -58 20 -7
84 27 84 45 0 8 8 27 17 43 15 25 15 31 4 38 -22 14 -4 111 26 138 26 25 25
49 -8 115 -23 45 -24 54 -4 38 18 -15 35 -5 35 20 0 24 -37 50 -72 50 -26 0
-28 2 -28 45 0 35 -5 47 -22 59 -25 15 -81 24 -115 18z m155 -249 c12 -23 22
-47 22 -53 0 -19 -28 -10 -49 15 -27 35 -35 79 -20 107 l12 23 7 -25 c4 -14
17 -44 28 -67z"/>
<path d="M1184 1193 c-3 -27 -11 -53 -16 -60 -6 -8 -2 -13 12 -18 27 -8 25
-11 38 55 7 41 7 57 -1 62 -21 14 -26 8 -33 -39z"/>
<path d="M2160 1190 c0 -11 7 -20 15 -20 17 0 18 2 9 24 -9 23 -24 20 -24 -4z"/>
<path d="M3045 3456 c-17 -7 -43 -28 -58 -45 -23 -28 -27 -41 -26 -89 2 -103
8 -116 59 -126 25 -5 49 -15 53 -23 18 -29 27 -9 27 57 0 66 -12 92 -26 55 -9
-23 -71 -20 -84 4 -15 29 -13 39 15 66 22 22 32 25 105 25 77 0 83 -2 111 -29
16 -16 29 -37 29 -45 0 -9 -16 -34 -36 -56 -43 -47 -38 -64 14 -46 l37 13 3
69 c2 59 -1 75 -20 104 -43 64 -140 95 -203 66z"/>
<path d="M153 3167 c-17 -7 -35 -15 -38 -19 -4 -4 -4 -63 0 -132 7 -118 16
-152 28 -106 5 19 14 20 125 20 111 0 120 -1 125 -20 3 -11 10 -20 16 -20 8 0
11 39 9 132 l-3 132 -38 15 c-46 17 -58 9 -29 -22 12 -12 28 -41 36 -63 20
-57 8 -74 -54 -74 -28 0 -50 4 -50 9 0 24 21 61 35 61 8 0 15 7 15 15 0 12
-14 15 -65 15 -66 0 -79 -9 -47 -32 23 -16 44 -53 35 -62 -3 -3 -28 -6 -55 -6
-35 0 -50 4 -55 16 -8 22 13 88 37 109 20 18 27 46 13 44 -5 0 -22 -6 -40 -12z"/>
<path d="M2960 3025 l0 -134 40 -12 c52 -16 59 -7 26 31 -29 35 -39 66 -34
101 3 21 9 24 56 27 50 3 52 2 52 -22 0 -16 -9 -32 -25 -42 -39 -26 -30 -34
40 -34 70 0 79 8 40 34 -16 10 -25 26 -25 41 0 23 3 25 50 25 37 0 52 -4 58
-17 13 -25 -3 -75 -33 -107 -42 -46 -31 -57 30 -32 l35 15 0 130 c0 83 -4 131
-10 131 -6 0 -14 -8 -17 -17 -11 -30 -24 -33 -136 -33 -105 0 -108 1 -119 25
-6 14 -15 25 -20 25 -4 0 -8 -61 -8 -135z"/>
<path d="M150 2878 l-36 -9 1 -83 c0 -70 3 -88 20 -106 53 -59 160 -78 222
-40 48 29 77 96 66 152 -9 46 -93 126 -93 88 0 -5 11 -20 25 -34 33 -33 34
-84 3 -113 -32 -29 -94 -44 -141 -33 -84 19 -102 79 -42 136 54 51 47 62 -25
42z"/>
<path d="M3044 2840 c-12 -4 -36 -26 -53 -47 -30 -35 -32 -42 -29 -100 3 -49
9 -68 28 -89 37 -39 73 -54 131 -54 97 0 149 54 149 154 0 45 -5 60 -27 87
-15 17 -42 38 -60 45 -36 15 -106 17 -139 4z m154 -82 c61 -19 68 -84 10 -114
-23 -12 -51 -15 -109 -12 -84 3 -103 13 -114 58 -16 68 96 105 213 68z"/>
<path d="M118 2593 c-2 -5 -3 -30 -3 -57 0 -50 18 -74 28 -36 3 12 14 21 29
21 96 6 118 5 115 -4 -3 -9 -112 -90 -155 -115 -17 -11 -21 -294 -4 -300 7 -2
12 5 12 16 0 28 18 32 135 32 82 0 105 -3 116 -16 20 -24 -7 -64 -65 -96 l-49
-26 -21 31 c-16 24 -30 33 -57 35 -48 4 -77 -28 -79 -88 -4 -105 1 -200 10
-200 6 0 10 7 10 15 0 24 44 35 140 35 67 0 92 -4 104 -16 9 -8 16 -20 16 -25
0 -5 5 -9 10 -9 12 0 14 157 1 164 -4 3 -13 -6 -19 -19 -10 -22 -18 -25 -61
-25 -67 0 -60 18 25 62 l64 33 -1 198 c0 108 -3 197 -7 197 -3 0 -15 -11 -27
-25 -19 -25 -25 -26 -100 -23 l-80 3 108 79 c82 61 107 85 107 103 0 23 -1 23
-134 23 -126 0 -135 1 -141 20 -6 20 -21 27 -27 13z m276 -306 c19 -52 2 -62
-110 -65 -54 -2 -109 0 -121 3 -27 6 -33 32 -16 68 l14 28 112 -3 112 -3 9
-28z m-155 -304 c5 -10 11 -29 12 -43 4 -24 2 -25 -51 -25 -49 0 -55 2 -58 22
-2 12 2 31 8 42 14 27 75 29 89 4z"/>
<path d="M2966 2533 c-11 -11 -7 -163 4 -163 6 0 14 8 17 18 10 25 23 32 71
32 66 0 53 -23 -42 -71 l-51 -26 -3 -57 c-3 -63 14 -77 36 -28 7 17 30 37 57
50 l46 22 33 -35 c47 -49 90 -44 121 15 17 34 22 235 5 245 -5 3 -10 -1 -10
-9 0 -26 -36 -36 -134 -36 -102 0 -126 5 -126 25 0 16 -15 27 -24 18z m272
-146 c4 -36 -13 -57 -46 -57 -35 0 -62 27 -62 62 0 29 1 29 53 26 49 -3 52 -5
55 -31z"/>
<path d="M3034 2201 c-17 -10 -41 -32 -53 -47 -21 -26 -22 -36 -17 -99 4 -38
7 -78 7 -87 0 -14 9 -18 44 -18 34 0 47 -5 55 -20 20 -38 30 -20 30 55 0 43
-4 75 -10 75 -5 0 -10 -4 -10 -9 0 -5 -6 -16 -14 -24 -21 -20 -65 -9 -78 19
-26 57 56 102 160 89 101 -13 129 -75 62 -137 -17 -15 -30 -32 -30 -38 0 -13
31 -13 64 0 25 9 26 13 26 83 0 70 -2 76 -35 115 -53 61 -140 80 -201 43z"/>
<path d="M2967 1903 c-4 -3 -7 -63 -7 -133 l0 -127 42 -16 c46 -18 59 -15 40
11 -44 61 -52 79 -50 112 3 35 3 35 56 38 50 3 52 2 52 -22 0 -15 -11 -33 -27
-46 -22 -17 -24 -23 -13 -30 14 -9 110 -3 120 6 3 3 -7 15 -23 26 -16 12 -27
29 -27 44 0 22 4 24 50 24 39 0 52 -4 60 -20 12 -23 -8 -81 -42 -117 -28 -30
-17 -39 32 -24 l40 12 0 129 c0 128 -10 167 -30 116 -9 -26 -10 -26 -125 -26
-114 0 -116 0 -125 25 -10 27 -13 29 -23 18z"/>
<path d="M162 1783 c-28 -11 -41 -60 -43 -167 -1 -106 4 -137 18 -100 11 31
23 34 136 34 101 0 109 -2 114 -20 3 -11 12 -20 19 -20 11 0 14 19 14 80 0 75
-11 105 -23 60 -4 -17 -14 -20 -56 -20 l-51 0 0 35 c0 90 -60 146 -128 118z
m76 -89 c12 -8 22 -26 22 -40 0 -23 -3 -24 -60 -24 -53 0 -60 2 -60 20 0 25
34 60 58 60 10 0 28 -7 40 -16z"/>
<path d="M3193 1593 c-50 -5 -59 -29 -15 -38 15 -4 35 -8 45 -10 28 -5 47 5
47 25 0 14 -26 36 -33 28 -1 -1 -21 -3 -44 -5z"/>
<path d="M2985 1500 c-18 -7 -21 -18 -23 -89 -2 -75 -1 -82 25 -110 58 -63
127 -40 162 54 12 30 21 59 21 64 0 4 9 16 20 26 20 18 21 18 42 -2 26 -27 19
-59 -23 -108 -38 -43 -31 -58 19 -41 l37 13 3 73 c3 68 1 75 -24 101 -54 57
-121 28 -155 -65 -28 -78 -49 -102 -77 -87 -43 23 -37 84 14 133 19 18 34 36
34 41 0 9 -49 8 -75 -3z"/>
<path d="M2578 598 c-52 -22 -59 -33 -28 -41 21 -5 24 -33 11 -89 l-6 -27 -43
36 c-34 28 -40 38 -31 49 7 8 9 17 6 21 -8 7 -137 -47 -137 -57 0 -4 10 -10
23 -14 42 -10 154 -103 166 -137 14 -40 14 -69 1 -69 -5 0 -10 -7 -10 -15 0
-19 -5 -20 74 12 70 29 83 44 44 53 -26 6 -57 61 -58 101 0 43 22 143 36 160
15 17 19 40 7 38 -5 0 -29 -10 -55 -21z"/>
<path d="M858 550 c-71 -21 -128 -98 -128 -173 0 -77 44 -132 116 -144 41 -7
114 22 114 45 0 9 -6 12 -17 7 -67 -27 -72 -27 -103 -5 -29 21 -32 27 -32 83
-1 69 57 157 104 157 27 0 66 -46 70 -83 2 -20 8 -32 18 -32 22 0 32 95 11
102 -9 3 -39 16 -66 29 -28 13 -52 24 -55 23 -3 0 -17 -4 -32 -9z"/>
<path d="M2195 466 l-110 -21 -3 -48 c-2 -26 0 -47 5 -47 4 0 24 19 44 43 20
23 40 40 43 37 3 -3 8 -24 11 -45 3 -22 9 -58 15 -80 13 -52 13 -122 0 -130
-5 -3 -10 -11 -10 -17 0 -11 39 -6 113 13 39 10 51 29 18 29 -23 0 -27 11 -52
129 -28 137 -27 140 39 96 43 -29 52 -31 52 -10 0 25 -29 75 -43 74 -6 -1 -61
-11 -122 -23z"/>
<path d="M1144 451 c-58 -26 -85 -74 -86 -151 -1 -66 13 -95 65 -134 41 -31
115 -27 161 8 89 67 88 223 -1 270 -50 25 -94 28 -139 7z m116 -38 c20 -25 21
-36 16 -96 -7 -75 -25 -121 -55 -137 -53 -28 -91 7 -91 83 0 135 74 220 130
150z"/>
<path d="M1950 429 c0 -6 9 -18 19 -27 14 -12 21 -37 26 -86 5 -48 4 -66 -4
-62 -6 4 -41 45 -77 92 -63 80 -69 85 -97 80 -16 -3 -40 -6 -53 -6 -31 0 -31
-18 0 -30 26 -9 28 -21 39 -169 4 -47 1 -57 -19 -76 -30 -28 -22 -35 36 -35
58 0 83 21 46 38 -21 9 -25 20 -31 86 -4 41 -6 79 -4 85 2 6 40 -34 83 -89 62
-79 83 -100 100 -98 11 2 20 8 20 13 -1 6 -5 65 -9 132 -6 116 -6 122 14 133
36 19 23 30 -34 30 -33 0 -55 -4 -55 -11z"/>
<path d="M1400 421 c0 -6 9 -15 19 -21 18 -9 19 -19 16 -103 -4 -114 6 -152
48 -174 46 -24 110 -22 144 3 31 24 41 57 44 159 3 90 6 102 31 108 37 10 7
27 -48 27 -54 0 -72 -13 -33 -25 20 -7 21 -13 17 -116 -3 -119 -10 -134 -64
-145 -55 -11 -64 10 -64 143 0 107 1 115 20 120 12 3 19 11 17 17 -5 14 -147
21 -147 7z"/>
</g>
</svg>
